<svg xmlns="http://www.w3.org/2000/svg" viewBox="0 0 512 512" width="512" height="512">
  <path d="M0 0 C17.16 0 34.32 0 52 0 C52.33 50.49 52.66 100.98 53 153 C56.465 149.535 56.465 149.535 60 146 C96.76067058 115.12678057 142.34993121 99.91181518 189.375 93.25 C190.58373779 93.07645996 190.58373779 93.07645996 191.81689453 92.89941406 C200.55390881 91.75670776 209.1322247 91.49265418 218 91 C218 60.97 218 30.94 218 0 C235.16 0 252.32 0 270 0 C270 30.36 270 60.72 270 92 C274.62 92 279.24 92 284 92 C288.45927687 92.45016453 292.82623533 92.95987292 297.25 93.625 C298.45672363 93.80466309 299.66344727 93.98432617 300.90673828 94.16943359 C351.7621802 102.06022316 395.71542616 120.75920675 435 154 C435.33 103.18 435.66 52.36 436 0 C453.16 0 470.32 0 488 0 C488 158.4 488 316.8 488 480 C326.96 480 165.92 480 0 480 C0 321.6 0 163.2 0 0 Z M195.75 158.1875 C194.71641357 158.3205957 193.68282715 158.45369141 192.61791992 158.59082031 C154.10345163 163.81926685 120.21530864 176.85720309 92 204 C91.28328125 204.64195312 90.5665625 205.28390625 89.828125 205.9453125 C66.57727721 227.42909586 60.82872463 259.91264982 59 290 C58.87570754 294.44012319 58.87271816 298.87599915 58.88647461 303.31762695 C58.88635407 304.59786586 58.88623354 305.87810476 58.88610935 307.19713879 C58.88588634 310.61703381 58.89162341 314.03689285 58.89871979 317.45677948 C58.90447364 320.68224481 58.90468608 323.90770887 58.90539551 327.13317871 C58.91061398 336.52629045 58.92457523 345.9193957 58.9375 355.3125 C58.958125 376.329375 58.97875 397.34625 59 419 C111.47 419 163.94 419 218 419 C218 332.54 218 246.08 218 157 C210.2514102 157 203.32308559 157.21212559 195.75 158.1875 Z M270 157 C270 243.46 270 329.92 270 419 C322.8 419 375.6 419 430 419 C430.04125 400.953125 430.0825 382.90625 430.125 364.3125 C430.14320801 358.67712158 430.16141602 353.04174316 430.18017578 347.2355957 C430.18687684 342.05086638 430.18687684 342.05086638 430.19088745 336.86613464 C430.19389888 334.60990096 430.20080304 332.35366985 430.21115112 330.09745789 C430.26864131 316.86644338 429.9939298 303.72048617 429.10107422 290.51635742 C429.02179247 289.33857129 428.94251072 288.16078516 428.86082649 286.94730854 C426.41615783 253.93947499 416.77773175 220.41069656 391 198 C364.5166629 175.54490008 330.62243251 165.19226101 296.9375 159.6875 C295.96409668 159.52805908 294.99069336 159.36861816 293.98779297 159.2043457 C285.94909265 157.97653073 278.19535102 157.54635673 270 157 Z" fill="#000000" transform="translate(12,16)"/>
</svg>
